<svg xmlns="http://www.w3.org/2000/svg" xmlns:xlink="http://www.w3.org/1999/xlink" width="59" height="61" viewBox="0 0 59 61"><defs><style>.a{fill:#fff;}.b{fill:none;stroke:#b9b9b9;stroke-linecap:round;stroke-width:5px;}.c{filter:url(#a);}</style><filter id="a" x="0" y="0" width="59" height="61" filterUnits="userSpaceOnUse"><feOffset dy="-3" input="SourceAlpha"/><feGaussianBlur stdDeviation="1.5" result="b"/><feFlood flood-opacity="0.161"/><feComposite operator="in" in2="b"/><feComposite in="SourceGraphic"/></filter></defs><g transform="translate(-469.5 -326.5)"><g class="c" transform="matrix(1, 0, 0, 1, 469.5, 326.5)"><path class="a" d="M25,0h0A25,25,0,0,1,50,25V52a0,0,0,0,1,0,0H0a0,0,0,0,1,0,0V25A25,25,0,0,1,25,0Z" transform="translate(4.5 7.5)"/></g><g transform="translate(-1 -10)"><line class="b" y1="13" x2="13" transform="translate(486.5 360.5)"/><line class="b" x1="13" y1="13" transform="translate(499.5 360.5)"/></g></g></svg>