<svg xmlns="http://www.w3.org/2000/svg" width="24" height="20" viewBox="0 0 24 20"><g transform="translate(-308 -134)"><path d="M309,150a2.946,2.946,0,0,0,3,3h16a2.946,2.946,0,0,0,3-3V138a2.946,2.946,0,0,0-3-3H312a2.946,2.946,0,0,0-3,3Z" fill="none"/><path d="M309,150a2.946,2.946,0,0,0,3,3h16a2.946,2.946,0,0,0,3-3V138a2.946,2.946,0,0,0-3-3H312a2.946,2.946,0,0,0-3,3Z" fill="none" stroke="#3b3b3b" stroke-linecap="round" stroke-linejoin="round" stroke-miterlimit="10" stroke-width="2"/><path d="M310,136l10,9,10-9" fill="none" stroke="#3b3b3b" stroke-linecap="round" stroke-linejoin="round" stroke-miterlimit="10" stroke-width="2"/><line y1="4" x2="4" transform="translate(313 143)" stroke-width="2" stroke="#3b3b3b" stroke-linecap="round" stroke-linejoin="round" stroke-miterlimit="10" fill="none"/><line x1="4" y1="4" transform="translate(323 143)" stroke-width="2" stroke="#3b3b3b" stroke-linecap="round" stroke-linejoin="round" stroke-miterlimit="10" fill="none"/></g></svg>